{"title":"WWE-KC History Of WWE Timeline 1983 With Don Muraco.avi","uid":11251026,"size":1250719176,"categoryP":"video","categoryS":"tv_shows","magnet":"?xt=urn:btih:18d96347108db86d2d7f1f66b2a863d808eff0e9&amp;dn=WWE-KC+History+Of+WWE+Timeline+1983+With+Don+Muraco.avi&amp;tr=udp%3A%2F%2Ftracker.openbittorrent.com%3A80&amp;tr=udp%3A%2F%2Fopen.demonii.com%3A1337&amp;tr=udp%3A%2F%2Ftracker.coppersurfer.tk%3A6969&amp;tr=udp%3A%2F%2Fexodus.desync.com%3A6969","seeders":2,"leechers":1,"uploader":"qtleewest","files":-1,"time":1413831210,"description":"KC Timeline The History of the WWE 1983 With Don Muraco\n\nVideo \nID                                      : 0 \nFormat                                  : MPEG-4 Visual \nFormat profile                          : Simple@L3 \nFormat settings, BVOP                    : No \nFormat settings, QPel                    : No \nFormat settings, GMC                    : No warppoints \nFormat settings, Matrix                  : Default (H.263) \nCodec ID                                : XVID \nCodec ID/Hint                            : XviD \nDuration                                : 1h 29mn \nBit rate                                : 441 Kbps \nWidth                                    : 480 pixels \nHeight                                  : 270 pixels \nDisplay aspect ratio                    : 16:9 \nFrame rate                              : 29.970 fps \nColor space                              : YUV \nChroma subsampling                      : 4:2:0 \nBit depth                                : 8 bits \nScan type                                : Progressive \nCompression mode                        : Lossy \nBits/(Pixel*Frame)                      : 0.114 \nStream size                              : 282 MiB (24%) \nWriting library                          : XviD 1.1.2 (UTC 2006-11-01) \n\nAudio \nID                                      : 1 \nFormat                                  : PCM \nFormat settings, Endianness              : Little \nFormat settings, Sign                    : Signed \nCodec ID                                : 1 \nDuration                                : 1h 29mn \nBit rate mode                            : Constant \nBit rate                                : 1 411.2 Kbps \nChannel count                            : 2 channels \nSampling rate                            : 44.1 KHz \nBit depth                                : 16 bits \nStream size                              : 903 MiB (76%) \nAlignment                                : Aligned on interleaves \nInterleave, duration                    : 33 ms (1.00 video frame) \nInterleave, preload duration            : 500 ms \n\nSource jkkk","torrent":{"xt":"urn:btih:18d96347108db86d2d7f1f66b2a863d808eff0e9","amp;dn":"WWE-KC+History+Of+WWE+Timeline+1983+With+Don+Muraco.avi","amp;tr":["udp%3A%2F%2Ftracker.openbittorrent.com%3A80","udp%3A%2F%2Fopen.demonii.com%3A1337","udp%3A%2F%2Ftracker.coppersurfer.tk%3A6969","udp%3A%2F%2Fexodus.desync.com%3A6969"],"infoHash":"18d96347108db86d2d7f1f66b2a863d808eff0e9","infoHashBuffer":{"type":"Buffer","data":[24,217,99,71,16,141,184,109,45,127,31,102,178,168,99,216,8,239,240,233]},"announce":[],"urlList":[]}}